<svg id="Layer_1" data-name="Layer 1" xmlns="http://www.w3.org/2000/svg" viewBox="0 0 517.46 169.68"><defs><style>.cls-1{fill:#fff;}</style></defs><path class="cls-1" d="M20.07,50.08c-9.92,0-16.83,7.78-16.83,17.49V150c0,9.71,6.91,17.48,16.83,17.48S36.91,159.75,36.91,150V67.57C36.91,57.86,30,50.08,20.07,50.08Z"/><path class="cls-1" d="M20.07,0A20.08,20.08,0,1,0,40.16,20.07,20,20,0,0,0,20.07,0Z"/><path class="cls-1" d="M128.26,47.93c-14.46,0-23.53,4.53-28.93,13a18.16,18.16,0,0,0-16.84-10.8c-9.93,0-16.84,7.78-16.84,17.49V150c0,9.71,6.91,17.48,16.84,17.48S99.33,159.75,99.33,150V96.71c0-11.66,6.91-20.29,18.57-20.29s18.57,8.63,18.57,20.29V150c0,9.71,6.91,17.48,16.84,17.48s16.83-7.77,16.83-17.48V87.64C170.14,60,151.58,47.93,128.26,47.93Z"/><path class="cls-1" d="M215.76,50.08c-9.92,0-16.83,7.78-16.83,17.49V150c0,9.71,6.91,17.48,16.83,17.48S232.6,159.75,232.6,150V67.57C232.6,57.86,225.69,50.08,215.76,50.08Z"/><path class="cls-1" d="M215.76,0a20.08,20.08,0,1,0,20.09,20.07A20,20,0,0,0,215.76,0Z"/><path class="cls-1" d="M313,51.38h-9.29v-22c0-9.72-6.91-17.49-16.83-17.49S270,19.64,270,29.36v22h-3.88c-10.81,0-17.71,4.75-17.71,15.54s6.9,15.55,17.71,15.55H270V150c0,9.71,6.91,17.48,16.84,17.48s16.83-7.77,16.83-17.48V82.47H313c10.8,0,17.7-4.76,17.7-15.55S323.75,51.38,313,51.38Z"/><path class="cls-1" d="M363.29,50.08c-9.93,0-16.83,7.78-16.83,17.49V150c0,9.71,6.9,17.48,16.83,17.48s16.84-7.77,16.84-17.48V67.57C380.13,57.86,373.22,50.08,363.29,50.08Z"/><path class="cls-1" d="M363.29,0a20.08,20.08,0,1,0,20.08,20.07A20,20,0,0,0,363.29,0Z"/><path class="cls-1" d="M496.74,82.68A40.85,40.85,0,0,0,511,52.24c0-20-11.45-33-27.45-39.09L470.71,33.56h17.17L447.37,81.67l14.88-35.74H447.37L465.75,9.39c-1.55-.11-3.05-.33-4.63-.33-26.76,0-49.87,14.69-49.87,43.18A40.88,40.88,0,0,0,425.5,82.68a42.42,42.42,0,0,0-20.72,36.91c0,28.08,22.23,50.09,56.34,50.09s56.34-22,56.34-50.09A42.42,42.42,0,0,0,496.74,82.68Zm-35,54.24a20.08,20.08,0,1,1,20.08-20.08A19.91,19.91,0,0,1,461.75,136.92Z"/></svg>