<svg 
 xmlns="http://www.w3.org/2000/svg"
 xmlns:xlink="http://www.w3.org/1999/xlink"
 width="13px" height="21px">
<path fill-rule="evenodd"  fill="rgb(255, 255, 255)"
 d="M8.301,20.048 L4.698,20.048 C2.108,20.048 -0.000,17.940 -0.000,15.349 L-0.000,4.699 C-0.000,2.108 2.108,-0.000 4.698,-0.000 L8.301,-0.000 C10.892,-0.000 13.000,2.108 13.000,4.699 L13.000,15.349 C13.000,17.940 10.892,20.048 8.301,20.048 ZM11.434,4.699 C11.434,2.971 10.028,1.566 8.301,1.566 L4.698,1.566 C2.971,1.566 1.566,2.971 1.566,4.699 L1.566,15.349 C1.566,17.077 2.971,18.482 4.698,18.482 L8.301,18.482 C10.028,18.482 11.434,17.077 11.434,15.349 L11.434,4.699 ZM2.994,13.127 L4.132,12.050 L6.506,14.560 L8.866,12.052 L10.007,13.126 L6.509,16.843 L2.994,13.127 ZM6.500,11.003 C6.067,11.003 5.717,10.652 5.717,10.220 C5.717,9.787 6.067,9.437 6.500,9.437 C6.932,9.437 7.283,9.787 7.283,10.220 C7.283,10.652 6.932,11.003 6.500,11.003 ZM6.500,7.870 C6.067,7.870 5.717,7.520 5.717,7.087 C5.717,6.655 6.067,6.304 6.500,6.304 C6.932,6.304 7.283,6.655 7.283,7.087 C7.283,7.520 6.932,7.870 6.500,7.870 ZM6.500,4.738 C6.067,4.738 5.717,4.387 5.717,3.955 C5.717,3.522 6.067,3.171 6.500,3.171 C6.932,3.171 7.283,3.522 7.283,3.955 C7.283,4.387 6.932,4.738 6.500,4.738 Z"/>
</svg>